HIERARCHY
ROOT Hips
{
     OFFSET -4.28506 94.89290 -40.63720
     CHANNELS 6 Xposition Yposition Zposition Zrotation Xrotation Yrotation
     JOINT Spine
     {
          OFFSET -0.00000 11.89050 -0.00000
          CHANNELS 3 Zrotation Xrotation Yrotation
          JOINT Spine1
          {
               OFFSET -0.00000 25.65740 0.12766
               CHANNELS 3 Zrotation Xrotation Yrotation
               JOINT HEad
               {
                    OFFSET 0.00000 8.73416 0.01134
                    CHANNELS 3 Zrotation Xrotation Yrotation
                    End Site
                    {
                         OFFSET -0.29000 12.77420 2.51395
                    }
               }
               JOINT LeftShoulder1
               {
                    OFFSET 8.99000 -0.36225 -0.22000
                    CHANNELS 3 Zrotation Xrotation Yrotation
                    JOINT LeftArm
                    {
                         OFFSET 10.28270 -0.00338 0.32212
                         CHANNELS 3 Zrotation Xrotation Yrotation
                         JOINT LeftForeArm
                         {
                              OFFSET 32.76690 0.09914 -1.42434
                              CHANNELS 3 Zrotation Xrotation Yrotation
                              JOINT LeftHand
                              {
                                   OFFSET 27.56430 0.08536 1.02216
                                   CHANNELS 3 Zrotation Xrotation Yrotation
                                   End Site
                                   {
                                        OFFSET 16.74430 -0.60000 1.50291
                                   }
                              }
                         }
                    }
               }
               JOINT RightShoulder
               {
                    OFFSET -8.99000 -0.36225 -0.22000
                    CHANNELS 3 Zrotation Xrotation Yrotation
                    JOINT RightArm
                    {
                         OFFSET -10.28270 -0.00338 0.32212
                         CHANNELS 3 Zrotation Xrotation Yrotation
                         JOINT RightForeArm
                         {
                              OFFSET -32.89710 0.09914 -1.42434
                              CHANNELS 3 Zrotation Xrotation Yrotation
                              JOINT RightHand
                              {
                                   OFFSET -27.49210 0.08536 1.02216
                                   CHANNELS 3 Zrotation Xrotation Yrotation
                                   End Site
                                   {
                                        OFFSET -16.63120 -0.60000 1.50291
                                   }
                              }
                         }
                    }
               }
          }
     }
     JOINT LeftUpLeg
     {
          OFFSET 8.94580 -8.66707 0.10165
          CHANNELS 3 Zrotation Xrotation Yrotation
          JOINT LeftLeg
          {
               OFFSET 0.00000 -44.42270 1.37270
               CHANNELS 3 Zrotation Xrotation Yrotation
               JOINT LeftFoot
               {
                    OFFSET -0.25355 -42.09240 -1.46059
                    CHANNELS 3 Zrotation Xrotation Yrotation
                    JOINT LeftToes
                    {
                         OFFSET -0.04000 -4.41509 8.49910
                         CHANNELS 3 Zrotation Xrotation Yrotation
                         End Site
                         {
                              OFFSET 0.08000 -0.04745 9.77979
                         }
                    }
               }
          }
     }
     JOINT RightUpLeg
     {
          OFFSET -8.94580 -8.66707 0.10165
          CHANNELS 3 Zrotation Xrotation Yrotation
          JOINT RightLeg
          {
               OFFSET 0.00000 -44.42270 1.37270
               CHANNELS 3 Zrotation Xrotation Yrotation
               JOINT RightFoot
               {
                    OFFSET 0.25355 -42.09240 -1.46059
                    CHANNELS 3 Zrotation Xrotation Yrotation
                    JOINT RightToes
                    {
                         OFFSET 0.04000 -4.41509 8.49910
                         CHANNELS 3 Zrotation Xrotation Yrotation
                         End Site
                         {
                              OFFSET -0.08000 -0.13745 9.77979
                         }
                    }
               }
          }
     }
}
MOTION
Frames: 10
Frame Time: 0.01667
54.55870 95.85860 -16.53930 -12.79160 5.86600 -108.15400 0.60024 13.72360 0.99749 -3.68005 27.88760 2.87509 -6.63411 2.73661 3.93206 -0.00000 0.00000 -0.00000 -142.04401 -51.98300 -114.42800 -85.42840 53.63850 -41.44300 11.21580 7.63444 -20.23420 7.92718 1.02527 6.02610 98.53690 -5.05757 81.76440 17.95670 34.74240 91.79130 15.47870 12.34840 13.06220 24.06570 -9.86990 -26.95730 -22.07190 10.00870 54.31400 -22.41360 9.26528 3.26488 11.78360 13.69330 -46.91950 -34.44640 18.56600 25.04040 35.62210 1.46109 -26.90920 -10.30280 6.94031 1.23709 1.74146 -5.43906 -12.39890 
53.93080 95.48890 -15.80580 -12.58950 6.67826 -109.11600 1.00791 13.75880 0.97735 -3.52322 28.01400 2.96518 -6.45475 2.38497 4.03264 -0.00000 0.00000 -0.00000 -142.29500 -51.95780 -114.84900 -84.20650 53.94650 -41.47500 11.69850 7.55393 -19.98810 7.90012 1.05902 6.34010 98.38630 -4.31997 81.80410 17.94800 34.37550 91.44480 15.08310 12.26990 12.93120 24.09700 -9.90391 -28.23050 -21.99540 10.65690 54.41220 -23.07910 8.26985 3.17136 11.71040 13.94210 -46.55130 -34.46070 18.25390 25.07570 35.54290 1.76114 -26.13350 -10.09690 7.24936 1.23978 1.74554 -5.65199 -12.51460 
53.28570 95.05150 -15.05720 -12.38870 7.54304 -110.07300 1.28338 13.82870 0.96688 -3.34212 28.17280 3.03744 -6.24838 2.14272 4.08955 -0.00000 0.00000 -0.00000 -142.25900 -52.14680 -114.86300 -82.88970 54.15840 -41.58220 11.88990 7.56508 -19.47090 8.09090 1.11006 6.66403 98.03480 -3.76652 81.59810 18.02660 33.98350 91.07970 14.84920 12.20940 12.74730 24.30590 -9.81926 -29.46060 -22.35830 11.23850 55.32680 -23.22010 7.20253 2.98113 11.68410 13.24820 -46.85730 -34.49090 18.05430 25.19940 35.49750 1.85266 -25.37400 -10.36390 7.83653 1.33135 1.70291 -7.00418 -12.54170 
52.64650 94.59420 -14.30480 -12.17100 8.40693 -110.99500 1.34024 13.92700 0.97647 -3.13701 28.33930 3.06880 -6.02597 2.00975 4.11915 -0.00000 0.00000 -0.00000 -142.03101 -52.53980 -114.53300 -81.64110 54.28340 -41.71330 11.78090 7.66282 -18.72360 8.49169 1.18151 7.01268 97.53930 -3.48362 81.17520 18.22640 33.60590 90.69380 14.82380 12.18140 12.57000 24.71070 -9.58769 -30.37060 -23.08780 11.56650 56.76800 -22.73040 6.21528 2.72497 11.66870 11.36990 -47.93220 -34.57200 17.97990 25.40260 35.48400 1.62522 -24.65730 -11.07160 8.77960 1.52446 1.61813 -9.37188 -12.45850 
52.04060 94.18840 -13.56280 -11.94450 9.20079 -111.84800 1.08092 14.05360 1.01694 -2.91990 28.50410 3.03371 -5.79429 1.96189 4.14585 -0.00000 0.00000 -0.00000 -141.70700 -53.10950 -113.94000 -80.61980 54.32840 -41.82050 11.40100 7.82514 -17.84200 9.07699 1.27262 7.37864 96.94960 -3.51506 80.58110 18.49580 33.28130 90.32970 14.98460 12.18610 12.43120 25.31150 -9.12290 -30.65740 -24.00190 11.38950 58.32440 -21.50440 5.50491 2.44242 11.58100 8.27315 -49.74890 -34.78230 18.09820 25.71190 35.50310 0.87241 -24.01180 -12.11140 10.14310 1.82714 1.51096 -12.38690 -12.26100 
51.50520 93.90410 -12.85440 -11.74470 9.83145 -112.60300 0.35378 14.21980 1.11739 -2.72806 28.67810 2.91985 -5.54076 1.95303 4.19725 -0.00000 0.00000 -0.00000 -141.35300 -53.80510 -113.16400 -79.94700 54.28670 -41.87150 10.80930 8.02064 -16.96110 9.79913 1.37820 7.73657 96.31670 -3.86057 79.88130 18.74600 33.03910 90.04320 15.26770 12.21430 12.33640 26.04250 -8.32257 -30.11980 -24.86280 10.49410 59.61240 -19.49120 5.27402 2.16685 11.31450 4.19020 -52.13570 -35.22840 18.45280 26.15850 35.57850 -0.55889 -23.49520 -13.34450 11.94260 2.24118 1.40672 -15.59200 -11.95630 
51.06600 93.78140 -12.19660 -11.62430 10.21250 -113.24700 -0.96430 14.43780 1.31191 -2.61624 28.88150 2.74201 -5.24199 1.93368 4.29351 -0.00000 0.00000 -0.00000 -141.01300 -54.54870 -112.29400 -79.69690 54.14890 -41.83980 10.08690 8.21851 -16.21470 10.57930 1.48792 8.05300 95.71200 -4.48025 79.15920 18.91880 32.89140 89.86130 15.59290 12.25410 12.28290 26.73870 -7.13088 -28.76500 -25.46800 8.84676 60.41010 -16.77820 5.64696 1.90641 10.79660 -0.43763 -54.82480 -36.04080 19.07030 26.77740 35.77090 -2.77062 -23.17020 -14.68180 14.17530 2.77303 1.32575 -18.60410 -11.56650 
50.82740 93.73680 -11.69280 -11.72960 10.00260 -113.87800 -3.68540 14.77300 1.85685 -2.78930 29.16570 2.54903 -4.88744 1.87860 4.43763 -0.00000 0.00000 -0.00000 -140.74100 -55.24260 -111.44000 -79.88980 53.92860 -41.70500 9.32800 8.39586 -15.68690 11.31380 1.58803 8.29999 95.23010 -5.30702 78.50550 19.02680 32.83300 89.75960 15.87580 12.29340 12.26990 26.92320 -5.63426 -26.79530 -25.72290 6.65475 60.80300 -13.68950 6.66521 1.65777 10.03410 -5.10659 -57.53390 -36.98240 18.69190 27.04620 36.07320 -3.11753 -23.59870 -15.48050 15.60980 3.13074 1.27709 -21.16210 -11.14340 
50.36930 93.45790 -10.98390 -11.72840 10.29920 -114.33900 -4.55197 14.93610 2.01899 -2.79264 29.39150 2.39636 -4.49411 1.80987 4.61622 -0.00000 0.00000 -0.00000 -140.59599 -55.78730 -110.71400 -80.46870 53.67750 -41.47980 8.63067 8.53925 -15.38690 11.90320 1.66641 8.46863 94.96560 -6.26500 78.00040 19.13970 32.84880 89.67700 16.03780 12.32080 12.29530 26.72600 -5.51719 -24.32530 -25.87670 7.94232 60.88140 -12.11120 6.95109 1.48713 9.11392 -9.38026 -60.02380 -37.43630 18.17330 26.94510 36.51000 -2.60566 -24.26090 -15.73930 16.70140 3.34160 1.25719 -23.05580 -10.77170 
49.93850 93.26990 -10.29910 -11.77900 10.44430 -114.70100 -5.36873 15.08720 2.19330 -2.94649 29.61460 2.35536 -4.10235 1.79663 4.81082 -0.00000 0.00000 -0.00000 -140.60001 -56.10180 -110.18900 -81.28630 53.47160 -41.23850 8.08361 8.64182 -15.26110 12.28870 1.71847 8.57753 94.97660 -7.28785 77.69670 19.33920 32.92140 89.55160 16.02660 12.32680 12.34740 26.30100 -5.50842 -22.00860 -25.81180 9.30634 60.82880 -10.85730 7.41357 1.36708 8.17510 -12.94030 -62.11660 -37.90740 17.41090 26.65910 37.09720 -1.63344 -25.43100 -15.83050 17.56590 3.48686 1.25387 -24.03660 -10.55240 
